<?xml version="1.0" encoding="UTF-8" standalone="no"?>
<!DOCTYPE svg PUBLIC "-//W3C//DTD SVG 1.1//EN" "http://www.w3.org/Graphics/SVG/1.1/DTD/svg11.dtd">
<svg width="100%" height="100%" viewBox="0 0 608 304" version="1.1" xmlns="http://www.w3.org/2000/svg" xmlns:xlink="http://www.w3.org/1999/xlink" xml:space="preserve" xmlns:serif="http://www.serif.com/" style="fill-rule:evenodd;clip-rule:evenodd;stroke-linejoin:round;stroke-miterlimit:2;">
    <g transform="matrix(2.45565,6.01462e-16,-6.01462e-16,2.45565,-14302.7,-5127.83)">
        <path d="M5870.56,2091.84C5868.71,2091.89 5866.94,2091.93 5865.36,2091.92C5856.8,2091.88 5850.15,2093.84 5845.42,2097.67C5840.69,2101.51 5838.33,2106.64 5838.33,2113.06C5838.33,2118.77 5840.34,2123.1 5844.35,2126.04C5848.37,2128.99 5854.3,2131.71 5862.15,2134.21L5881.69,2140.63C5890.07,2143.49 5896.94,2147.41 5902.3,2152.41C5907.65,2157.4 5910.33,2164.01 5910.33,2172.21C5910.33,2177.03 5909.39,2181.76 5907.52,2186.4C5905.64,2191.04 5902.88,2195.1 5899.22,2198.58C5895.56,2202.06 5891.1,2204.87 5885.84,2207.01C5880.57,2209.15 5874.55,2210.22 5867.77,2210.22C5863.85,2210.22 5860.23,2209.82 5856.93,2209.01C5853.63,2208.21 5850.6,2207.36 5847.83,2206.47C5845.07,2205.58 5842.52,2204.73 5840.2,2203.93C5837.88,2203.13 5835.74,2202.72 5833.78,2202.72C5831.82,2202.72 5830.39,2203.13 5829.5,2203.93C5828.61,2204.73 5827.89,2205.58 5827.36,2206.47L5824.41,2206.47L5824.41,2169L5827.36,2169C5828.61,2173.28 5830.21,2177.61 5832.17,2181.98C5834.14,2186.35 5836.77,2190.37 5840.07,2194.03C5843.37,2197.68 5847.43,2200.67 5852.25,2202.99C5857.06,2205.31 5862.86,2206.47 5869.64,2206.47C5875.35,2206.47 5880.44,2204.73 5884.9,2201.25C5889.36,2197.77 5891.59,2192.11 5891.59,2184.26C5891.59,2177.48 5889.85,2172.7 5886.37,2169.94C5882.89,2167.17 5878.83,2164.99 5874.19,2163.38L5853.32,2156.15C5850.64,2155.26 5847.74,2154.15 5844.62,2152.81C5841.5,2151.47 5838.6,2149.6 5835.92,2147.19C5833.24,2144.78 5831.06,2141.7 5829.36,2137.95C5827.67,2134.21 5826.82,2129.39 5826.82,2123.5C5826.82,2118.51 5827.8,2113.87 5829.77,2109.58C5831.73,2105.3 5834.4,2101.55 5837.79,2098.34C5841.18,2095.13 5845.24,2092.63 5849.97,2090.85C5854.7,2089.07 5859.83,2088.17 5865.36,2088.17C5866.08,2088.17 5866.77,2088.18 5867.43,2088.2L5935.79,2088.27L5935.79,2092.02L5913.57,2092.02L5943.55,2175.53L5971.39,2109.42L5964.69,2092.02L5953.45,2092.02L5953.45,2088.27L6006.72,2088.27L6006.72,2092.02L5988.78,2092.02L6019.83,2174.99L6053.28,2092.02L6028.13,2092.02L6028.13,2088.27L6071.75,2088.27L6071.75,2092.02L6057.57,2092.02L6009.66,2211.93L5973.26,2114.77L5932.58,2211.93L5896.28,2110.94C5896.25,2110.85 5896.21,2110.76 5896.17,2110.68C5895.87,2109.99 5895.64,2109.31 5895.46,2108.66L5889.49,2092.02L5870.68,2091.94L5870.56,2091.84Z" style="fill:black;"/>
    </g>
</svg>
